<?xml version="1.0" standalone="no"?><!DOCTYPE svg PUBLIC "-//W3C//DTD SVG 1.1//EN" "http://www.w3.org/Graphics/SVG/1.1/DTD/svg11.dtd"><svg t="1583307352579" class="icon" viewBox="0 0 1024 1024" version="1.1" xmlns="http://www.w3.org/2000/svg" p-id="1946" xmlns:xlink="http://www.w3.org/1999/xlink" width="200" height="200"><defs><style type="text/css"></style></defs><path d="M132.1 849c-5.6 5.6-10.4 7.6-14.3 5.8s-5.8-6.6-5.8-14.3V183.4c0-7.7 2-12.5 5.8-14.3 3.8-1.8 8.6 0.2 14.3 5.8l317 316.9c2.7 2.7 4.6 5.5 5.8 8.4V183.4c0-7.7 2-12.5 5.8-14.3 3.8-1.8 8.6 0.2 14.3 5.8l317 317c2.7 2.7 4.6 5.5 5.8 8.4V197.7c0-7.7 2.8-14.5 8.4-20.1 5.6-5.6 12.3-8.4 20.1-8.4h57.2c7.7 0 14.5 2.8 20.1 8.4 5.6 5.6 8.4 12.4 8.4 20.1v628.6c0 7.7-2.8 14.5-8.4 20.1-5.6 5.6-12.4 8.4-20.1 8.4h-57.2c-7.7 0-14.5-2.8-20.1-8.4-5.6-5.6-8.4-12.4-8.4-20.1V523.6c-1.2 3-3.1 5.8-5.8 8.4L474.9 849c-5.6 5.6-10.4 7.6-14.3 5.8-3.8-1.8-5.8-6.6-5.8-14.3v-317c-1.2 3-3.1 5.8-5.8 8.4L132.1 849z" p-id="1947"></path></svg>