<?xml version="1.0" standalone="no"?><!DOCTYPE svg PUBLIC "-//W3C//DTD SVG 1.1//EN" "http://www.w3.org/Graphics/SVG/1.1/DTD/svg11.dtd"><svg t="1583307364901" class="icon" viewBox="0 0 1024 1024" version="1.1" xmlns="http://www.w3.org/2000/svg" p-id="2360" xmlns:xlink="http://www.w3.org/1999/xlink" width="200" height="200"><defs><style type="text/css"></style></defs><path d="M891.9 175c5.6-5.6 10.4-7.6 14.3-5.8 3.8 1.8 5.8 6.6 5.8 14.3v657.2c0 7.7-2 12.5-5.8 14.3-3.8 1.8-8.6-0.2-14.3-5.8l-317-317c-2.7-2.7-4.6-5.5-5.8-8.5v317c0 7.7-2 12.5-5.8 14.3-3.8 1.8-8.6-0.2-14.3-5.8L232.1 532c-2.7-2.7-4.6-5.5-5.8-8.5v302.7c0 7.7-2.8 14.5-8.5 20.1s-12.4 8.5-20.1 8.5h-57.2c-7.7 0-14.5-2.8-20.1-8.5s-8.4-12.3-8.4-20V197.7c0-7.7 2.8-14.5 8.5-20.1s12.3-8.5 20.1-8.5h57.2c7.7 0 14.5 2.8 20.1 8.5s8.5 12.4 8.5 20.1v302.7c1.2-3 3.1-5.8 5.8-8.5l317-317c5.6-5.6 10.4-7.6 14.3-5.8 3.8 1.8 5.8 6.6 5.8 14.3v317c1.2-3 3.1-5.8 5.8-8.5L891.9 175z" p-id="2361"></path></svg>