<?xml version="1.0" standalone="no"?><!DOCTYPE svg PUBLIC "-//W3C//DTD SVG 1.1//EN" "http://www.w3.org/Graphics/SVG/1.1/DTD/svg11.dtd"><svg t="1583307359843" class="icon" viewBox="0 0 1024 1024" version="1.1" xmlns="http://www.w3.org/2000/svg" p-id="2225" xmlns:xlink="http://www.w3.org/1999/xlink" width="200" height="200"><defs><style type="text/css"></style></defs><path d="M954.2853125 325.1459375a478.6171875 478.6171875 0 0 0-102.856875-152.574375A478.6171875 478.6171875 0 0 0 698.8540625 69.7146875C639.6134375 44.645 576.824375 32 512 32c-64.81874999 0-127.60874999 12.645-186.8596875 37.7146875a478.6171875 478.6171875 0 0 0-152.56875 102.856875A478.6171875 478.6171875 0 0 0 69.7146875 325.1459375C44.645 384.3865625 32 447.175625 32 512c0 64.81874999 12.645 127.60874999 37.7146875 186.8596875a478.6171875 478.6171875 0 0 0 102.856875 152.56875 478.6171875 478.6171875 0 0 0 152.574375 102.856875C384.3865625 979.355 447.175625 992 512 992c64.81874999 0 127.60874999-12.645 186.8596875-37.7146875a478.6171875 478.6171875 0 0 0 152.56875-102.856875 478.6171875 478.6171875 0 0 0 102.856875-152.574375C979.355 639.60874999 992 576.8196875 992 512c0-64.81874999-12.645-127.60874999-37.7146875-186.8596875z m-58.9275 348.748125a416.03624999 416.03624999 0 0 1-89.1421875 132.211875c-38.1421875 38.1421875-82.71375001 68.2528125-132.2165625 89.1421875-51.215625 21.646875-105.748125 32.6784375-161.889375 32.6784375-56.146875 0-110.679375-11.0315625-161.8940625-32.6784375a416.03624999 416.03624999 0 0 1-132.2165625-89.1421875c-38.1421875-38.1421875-68.248125-82.71375001-89.143125-132.211875C107.2146875 622.679375 96.183125 568.14124999 96.183125 512c0-56.14124999 11.0371875-110.679375 32.6784375-161.8940625a416.03624999 416.03624999 0 0 1 89.14218751-132.211875c38.1421875-38.1421875 82.71375001-68.2528125 132.2175-89.1421875 51.21374999-21.646875 105.748125-32.6784375 161.89406249-32.6784375 56.1403125 0 110.67375001 11.0315625 161.88843751 32.6784375a416.03624999 416.03624999 0 0 1 132.2175 89.1421875c38.1421875 38.1421875 68.2471875 82.71375001 89.14218749 132.211875 21.64124999 51.2146875 32.6784375 105.7528125 32.6784375 161.8940625 0 56.14124999-11.0371875 110.679375-32.6784375 161.8940625z" p-id="2226"></path><path d="M333.7146875 300.8h119.76375v419.1796875H333.7146875V300.8z m239.533125 0H693.0125v419.1796875H573.246875V300.8z" p-id="2227"></path></svg>